<?xml version="1.0" encoding="UTF-8"?>
<svg width="140" height="60" viewBox="0 0 140 60" xmlns="http://www.w3.org/2000/svg">
  <defs>
    <!-- Gradient for Metric Store - same blue theme as other stores -->
    <linearGradient id="metricStoreGradient" x1="0%" y1="0%" x2="100%" y2="100%">
      <stop offset="0%" style="stop-color:#4A90E2;stop-opacity:1" />
      <stop offset="100%" style="stop-color:#2E5BBA;stop-opacity:1" />
    </linearGradient>
    
    <!-- Shadow filter -->
    <filter id="shadow" x="-20%" y="-20%" width="140%" height="140%">
      <feDropShadow dx="1" dy="2" stdDeviation="1" flood-color="#000000" flood-opacity="0.15"/>
    </filter>
  </defs>
  
  <!-- Main Container - Horizontal Rectangle -->
  <rect x="2" y="2" width="136" height="56" rx="8" fill="url(#metricStoreGradient)" filter="url(#shadow)"/>
  
  <!-- Metric Store Icon -->
  <g transform="translate(30, 30)">
    <!-- Chart background/container -->
    <rect x="-20" y="-15" width="40" height="30" rx="3" fill="white" stroke="#4A90E2" stroke-width="2"/>
    
    <!-- Chart axes -->
    <line x1="-16" y1="10" x2="16" y2="10" stroke="#4A90E2" stroke-width="1.5"/>
    <line x1="-16" y1="-10" x2="-16" y2="10" stroke="#4A90E2" stroke-width="1.5"/>
    
    <!-- Time-series line chart -->
    <polyline points="-14,5 -8,0 -2,-6 4,-3 10,-8 16,0" 
              fill="none" stroke="#4A90E2" stroke-width="2"/>
    
    <!-- Data points -->
    <circle cx="-14" cy="5" r="1.5" fill="#4A90E2"/>
    <circle cx="-8" cy="0" r="1.5" fill="#4A90E2"/>
    <circle cx="-2" cy="-6" r="1.5" fill="#4A90E2"/>
    <circle cx="4" cy="-3" r="1.5" fill="#4A90E2"/>
    <circle cx="10" cy="-8" r="1.5" fill="#4A90E2"/>
    <circle cx="16" cy="0" r="1.5" fill="#4A90E2"/>
    
    <!-- Time axis indicators -->
    <line x1="-10" y1="12" x2="-10" y2="14" stroke="#4A90E2" stroke-width="1"/>
    <line x1="0" y1="12" x2="0" y2="14" stroke="#4A90E2" stroke-width="1"/>
    <line x1="10" y1="12" x2="10" y2="14" stroke="#4A90E2" stroke-width="1"/>
  </g>
  
  <!-- Vertical Separator -->
  <line x1="65" y1="12" x2="65" y2="48" stroke="rgba(255,255,255,0.3)" stroke-width="1"/>
  
  <!-- Store Name -->
  <text x="102" y="33" text-anchor="middle" fill="white" font-family="Arial, sans-serif" font-size="14" font-weight="600">InfluxDB</text>
</svg>