<?xml version="1.0" encoding="UTF-8"?>
<svg width="120" height="160" viewBox="0 0 120 160" xmlns="http://www.w3.org/2000/svg">
  <defs>
    <!-- Gradient for Telemetry - same blue theme as other components -->
    <linearGradient id="telemetryGradient" x1="0%" y1="0%" x2="100%" y2="100%">
      <stop offset="0%" style="stop-color:#4A90E2;stop-opacity:1" />
      <stop offset="100%" style="stop-color:#2E5BBA;stop-opacity:1" />
    </linearGradient>
    
    <!-- Shadow filter -->
    <filter id="shadow" x="-20%" y="-20%" width="140%" height="140%">
      <feDropShadow dx="1" dy="2" stdDeviation="1" flood-color="#000000" flood-opacity="0.15"/>
    </filter>
  </defs>
  
  <!-- Main Container - Vertical Rectangle -->
  <rect x="2" y="2" width="116" height="156" rx="8" fill="url(#telemetryGradient)" filter="url(#shadow)"/>
  
  <!-- Telemetry Name -->
  <text x="60" y="25" text-anchor="middle" fill="white" font-family="Arial, sans-serif" font-size="14" font-weight="600">Jaeger</text>
  
  <!-- Horizontal Separator -->
  <line x1="15" y1="42" x2="105" y2="42" stroke="rgba(255,255,255,0.3)" stroke-width="1"/>
  
  <!-- Jaeger Icon - Trace Timeline -->
  <g transform="translate(60, 105)">
    <!-- Timeline background -->
    <rect x="-32" y="-20" width="64" height="40" rx="4" fill="white" stroke="#4A90E2" stroke-width="2"/>
    
    <!-- Timeline axis -->
    <line x1="-28" y1="15" x2="28" y2="15" stroke="#4A90E2" stroke-width="1.5"/>
    
    <!-- Service spans (horizontal bars) -->
    <rect x="-25" y="-15" width="20" height="4" fill="#4A90E2" rx="2"/>
    <rect x="-20" y="-8" width="35" height="4" fill="#4A90E2" rx="2"/>
    <rect x="-10" y="-1" width="25" height="4" fill="#4A90E2" rx="2"/>
    <rect x="5" y="6" width="15" height="4" fill="#4A90E2" rx="2"/>
    
    <!-- Time markers -->
    <line x1="-20" y1="17" x2="-20" y2="19" stroke="#4A90E2" stroke-width="1"/>
    <line x1="-5" y1="17" x2="-5" y2="19" stroke="#4A90E2" stroke-width="1"/>
    <line x1="10" y1="17" x2="10" y2="19" stroke="#4A90E2" stroke-width="1"/>
    <line x1="25" y1="17" x2="25" y2="19" stroke="#4A90E2" stroke-width="1"/>
    
    <!-- Jaeger logo-inspired element -->
    <circle cx="0" cy="25" r="8" fill="white" stroke="#4A90E2" stroke-width="2"/>
    <path d="M -3,22 L 0,28 L 3,22 Z" fill="#4A90E2"/>
    <circle cx="0" cy="25" r="2" fill="#4A90E2"/>
  </g>
</svg>