<?xml version="1.0" encoding="UTF-8"?>
<svg width="140" height="60" viewBox="0 0 140 60" xmlns="http://www.w3.org/2000/svg">
  <defs>
    <!-- Gradient for Telemetry - same blue theme as other components -->
    <linearGradient id="telemetryGradient" x1="0%" y1="0%" x2="100%" y2="100%">
      <stop offset="0%" style="stop-color:#4A90E2;stop-opacity:1" />
      <stop offset="100%" style="stop-color:#2E5BBA;stop-opacity:1" />
    </linearGradient>
    
    <!-- Shadow filter -->
    <filter id="shadow" x="-20%" y="-20%" width="140%" height="140%">
      <feDropShadow dx="1" dy="2" stdDeviation="1" flood-color="#000000" flood-opacity="0.15"/>
    </filter>
  </defs>
  
  <!-- Main Container - Horizontal Rectangle -->
  <rect x="2" y="2" width="136" height="56" rx="8" fill="url(#telemetryGradient)" filter="url(#shadow)"/>
  
  <!-- Telemetry Icon - Distributed Tracing -->
  <g transform="translate(30, 30)">
    <!-- Main trace flow line -->
    <line x1="-20" y1="0" x2="20" y2="0" stroke="white" stroke-width="2.5"/>
    
    <!-- Service nodes (circles) along the trace -->
    <circle cx="-15" cy="0" r="4" fill="white" stroke="#4A90E2" stroke-width="1.5"/>
    <circle cx="-5" cy="0" r="4" fill="white" stroke="#4A90E2" stroke-width="1.5"/>
    <circle cx="5" cy="0" r="4" fill="white" stroke="#4A90E2" stroke-width="1.5"/>
    <circle cx="15" cy="0" r="4" fill="white" stroke="#4A90E2" stroke-width="1.5"/>
    
    <!-- Span branches (sub-traces) -->
    <line x1="-15" y1="0" x2="-15" y2="-8" stroke="white" stroke-width="1.5"/>
    <line x1="-15" y1="-8" x2="-8" y2="-8" stroke="white" stroke-width="1.5"/>
    <circle cx="-8" cy="-8" r="2.5" fill="white" stroke="#4A90E2" stroke-width="1"/>
    
    <line x1="-5" y1="0" x2="-5" y2="8" stroke="white" stroke-width="1.5"/>
    <line x1="-5" y1="8" x2="2" y2="8" stroke="white" stroke-width="1.5"/>
    <circle cx="2" cy="8" r="2.5" fill="white" stroke="#4A90E2" stroke-width="1"/>
    
    <line x1="5" y1="0" x2="5" y2="-6" stroke="white" stroke-width="1.5"/>
    <line x1="5" y1="-6" x2="12" y2="-6" stroke="white" stroke-width="1.5"/>
    <circle cx="12" cy="-6" r="2.5" fill="white" stroke="#4A90E2" stroke-width="1"/>
    
    <line x1="15" y1="0" x2="15" y2="6" stroke="white" stroke-width="1.5"/>
    <line x1="15" y1="6" x2="22" y2="6" stroke="white" stroke-width="1.5"/>
    <circle cx="22" cy="6" r="2.5" fill="white" stroke="#4A90E2" stroke-width="1"/>
    
    <!-- Telemetry data indicators (small dots) -->
    <circle cx="-10" cy="-2" r="1" fill="rgba(255,255,255,0.7)"/>
    <circle cx="0" cy="2" r="1" fill="rgba(255,255,255,0.7)"/>
    <circle cx="10" cy="-1" r="1" fill="rgba(255,255,255,0.7)"/>
  </g>
  
  <!-- Vertical Separator -->
  <line x1="65" y1="12" x2="65" y2="48" stroke="rgba(255,255,255,0.3)" stroke-width="1"/>
  
  <!-- Telemetry Name -->
  <text x="102" y="33" text-anchor="middle" fill="white" font-family="Arial, sans-serif" font-size="14" font-weight="600">OTLP</text>
</svg>