<?xml version="1.0" encoding="UTF-8"?>
<svg width="140" height="60" viewBox="0 0 140 60" xmlns="http://www.w3.org/2000/svg">
  <defs>
    <!-- Gradient for Telemetry - same blue theme as other components -->
    <linearGradient id="telemetryGradient" x1="0%" y1="0%" x2="100%" y2="100%">
      <stop offset="0%" style="stop-color:#4A90E2;stop-opacity:1" />
      <stop offset="100%" style="stop-color:#2E5BBA;stop-opacity:1" />
    </linearGradient>
    
    <!-- Shadow filter -->
    <filter id="shadow" x="-20%" y="-20%" width="140%" height="140%">
      <feDropShadow dx="1" dy="2" stdDeviation="1" flood-color="#000000" flood-opacity="0.15"/>
    </filter>
  </defs>
  
  <!-- Main Container - Horizontal Rectangle -->
  <rect x="2" y="2" width="136" height="56" rx="8" fill="url(#telemetryGradient)" filter="url(#shadow)"/>
  
  <!-- Zipkin Icon - Trace Tree Structure -->
  <g transform="translate(30, 30)">
    <!-- Root service -->
    <rect x="-8" y="-15" width="16" height="5" rx="2" fill="white" stroke="#4A90E2" stroke-width="1.5"/>
    <text x="0" y="-11" text-anchor="middle" fill="#4A90E2" font-family="Arial, sans-serif" font-size="6" font-weight="600">Root</text>
    
    <!-- Connection lines from root -->
    <line x1="0" y1="-10" x2="0" y2="-5" stroke="white" stroke-width="1.5"/>
    <line x1="-12" y1="-5" x2="12" y2="-5" stroke="white" stroke-width="1.5"/>
    
    <!-- Child services level 1 -->
    <line x1="-12" y1="-5" x2="-12" y2="-2" stroke="white" stroke-width="1.5"/>
    <rect x="-18" y="-2" width="12" height="4" rx="2" fill="white" stroke="#4A90E2" stroke-width="1"/>
    <text x="-12" y="1" text-anchor="middle" fill="#4A90E2" font-family="Arial, sans-serif" font-size="5">Auth</text>
    
    <line x1="0" y1="-5" x2="0" y2="-2" stroke="white" stroke-width="1.5"/>
    <rect x="-6" y="-2" width="12" height="4" rx="2" fill="white" stroke="#4A90E2" stroke-width="1"/>
    <text x="0" y="1" text-anchor="middle" fill="#4A90E2" font-family="Arial, sans-serif" font-size="5">API</text>
    
    <line x1="12" y1="-5" x2="12" y2="-2" stroke="white" stroke-width="1.5"/>
    <rect x="6" y="-2" width="12" height="4" rx="2" fill="white" stroke="#4A90E2" stroke-width="1"/>
    <text x="12" y="1" text-anchor="middle" fill="#4A90E2" font-family="Arial, sans-serif" font-size="5">DB</text>
    
    <!-- Child services level 2 -->
    <line x1="0" y1="2" x2="0" y2="5" stroke="white" stroke-width="1.5"/>
    <line x1="-9" y1="5" x2="9" y2="5" stroke="white" stroke-width="1.5"/>
    
    <line x1="-9" y1="5" x2="-9" y2="8" stroke="white" stroke-width="1.5"/>
    <rect x="-15" y="8" width="12" height="4" rx="2" fill="white" stroke="#4A90E2" stroke-width="1"/>
    <text x="-9" y="11" text-anchor="middle" fill="#4A90E2" font-family="Arial, sans-serif" font-size="5">Cache</text>
    
    <line x1="9" y1="5" x2="9" y2="8" stroke="white" stroke-width="1.5"/>
    <rect x="3" y="8" width="12" height="4" rx="2" fill="white" stroke="#4A90E2" stroke-width="1"/>
    <text x="9" y="11" text-anchor="middle" fill="#4A90E2" font-family="Arial, sans-serif" font-size="5">Queue</text>
    
    <!-- Timing indicators -->
    <circle cx="-15" cy="15" r="1.5" fill="white" stroke="#4A90E2" stroke-width="1"/>
    <circle cx="-6" cy="15" r="1.5" fill="white" stroke="#4A90E2" stroke-width="1"/>
    <circle cx="3" cy="15" r="1.5" fill="white" stroke="#4A90E2" stroke-width="1"/>
    <circle cx="12" cy="15" r="1.5" fill="white" stroke="#4A90E2" stroke-width="1"/>
  </g>
  
  <!-- Vertical Separator -->
  <line x1="65" y1="12" x2="65" y2="48" stroke="rgba(255,255,255,0.3)" stroke-width="1"/>
  
  <!-- Telemetry Name -->
  <text x="102" y="33" text-anchor="middle" fill="white" font-family="Arial, sans-serif" font-size="14" font-weight="600">Zipkin</text>
</svg>